<svg width="57" height="20" viewBox="0 0 57 20" fill="none" xmlns="http://www.w3.org/2000/svg">
<rect x="14" width="15" height="2" fill="#002B7F"/>
<rect x="30" width="13" height="2" fill="#FCD116"/>
<rect x="44" width="13" height="2" fill="#CE1126"/>
<path d="M51.5 4C49.1 4 47.1 4.7 45.7 6.1C44.2 7.5 43.5 9.4 43.5 11.7C43.5 14.1 44.2 16 45.5 17.4C46.8 18.7 48.7 19.4 51.1 19.4C53.2 19.4 54.8 19 55.9 18.2L56.1 18.1V15.5L55.4 16.1C54.3 17.1 52.8 17.7 51.4 17.7C49.9 17.7 48.7 17.2 47.9 16.2C47 15.1 46.6 13.6 46.6 11.7C46.6 9.7 47 8.2 47.9 7.2C48.8 6.2 50 5.6 51.6 5.6C53.5 5.6 54.9 6.3 55.7 7.5L56.5 8.7V5.1L56.3 5C54.8 4.3 53.2 4 51.5 4Z" fill="black"/>
<path d="M40.5001 14.1C37.0001 10.5 33.8001 7.2 31.2001 4.1L31.1001 4H30.1001V6.6C30.1001 11 30 15 29.8 18.7V19.1H32.0001V8.8L36.2001 13.3C38.5001 15.7 40.3001 17.7 41.4001 19.1L41.5001 19.2H42.4001V14.2C42.4001 10.9 42.4001 7.7 42.5001 4.6V4.2H40.5001V14.1Z" fill="black"/>
<path d="M20.8 4C18.4 4 16.5 4.70001 15 6.10001C13.5 7.50001 12.8 9.4 12.8 11.7C12.8 14 13.5 15.9 15 17.3C16.4 18.7 18.4 19.4 20.8 19.4C23.2 19.4 25.1 18.7 26.6 17.3C28.1 15.9 28.8 14 28.8 11.7C28.8 9.4 28.1 7.50001 26.6 6.10001C25.2 4.70001 23.3 4 20.8 4ZM24.6 16.2C23.7 17.2 22.5 17.7 20.8 17.7C19.2 17.7 17.9 17.2 17 16.2C16.1 15.2 15.7 13.7 15.7 11.7C15.7 9.7 16.2 8.20001 17 7.10001C17.9 6.10001 19.1 5.5 20.8 5.5C22.4 5.5 23.7 6 24.6 7C25.5 8 25.9 9.50001 25.9 11.6C25.9 13.6 25.5 15.2 24.6 16.2Z" fill="black"/>
<path d="M6.89999 9.5C8.49999 9.2 9.7 8.6 10.5 7.8C11.5 6.9 11.9 5.8 11.9 4.5C11.9 1.5 9.8 0 5.7 0H0V0.299995C0.1 2.5 0.199997 5.5 0.199997 9.3C0.199997 13.2 0.1 16.2 0 18.2V18.5H2.89999V9.6H3.09999C3.39999 9.6 3.69999 9.8 3.89999 10.1L10.1 18.4V18.5H13.8L13.5 18.1C10.5 14 8.19999 11.1 6.89999 9.5ZM3 1.4H4.89999C7.79999 1.4 9.09999 2.4 9.09999 4.7C9.09999 7.1 7.2 8.3 3.5 8.3H2.89999V1.4H3Z" fill="black"/>
</svg>
