<svg width="92" height="20" viewBox="0 0 92 20" fill="none" xmlns="http://www.w3.org/2000/svg">
<path d="M52 4C49.6 4 47.6 4.7 46.2 6.1C44.7 7.5 44 9.4 44 11.7C44 14.1 44.7 16 46 17.4C47.3 18.7 49.2 19.4 51.6 19.4C53.7 19.4 55.3 19 56.4 18.2L56.6 18.1V15.5L55.9 16.1C54.8 17.1 53.3 17.7 51.9 17.7C50.4 17.7 49.2 17.2 48.4 16.2C47.5 15.1 47.1 13.6 47.1 11.7C47.1 9.7 47.5 8.2 48.4 7.2C49.3 6.2 50.5 5.6 52.1 5.6C54 5.6 55.4 6.3 56.2 7.5L57 8.7V5.1L56.8 5C55.3 4.3 53.7 4 52 4Z" fill="#101010"/>
<path d="M40.5001 14.1C37.0001 10.5 33.8001 7.2 31.2001 4.1L31.1001 4H30.1001V6.6C30.1001 11 30 15 29.8 18.7V19.1H32.0001V8.8L36.2001 13.3C38.5001 15.7 40.3001 17.7 41.4001 19.1L41.5001 19.2H42.4001V14.2C42.4001 10.9 42.4001 7.7 42.5001 4.6V4.2H40.5001V14.1Z" fill="#101010"/>
<path d="M89.7 14.1C86.2 10.5 83 7.2 80.4 4.1L80.3 4H79.3V6.6C79.3 11 79.2 15 79 18.7V19.1H81.2V8.8L85.4 13.3C87.7 15.7 89.5 17.7 90.6 19.1L90.7 19.2H91.6V14.2C91.6 10.9 91.6 7.7 91.7 4.6V4.2H89.7V14.1Z" fill="#101010"/>
<path d="M20.8 4C18.4 4 16.5 4.70001 15 6.10001C13.5 7.50001 12.8 9.4 12.8 11.7C12.8 14 13.5 15.9 15 17.3C16.4 18.7 18.4 19.4 20.8 19.4C23.2 19.4 25.1 18.7 26.6 17.3C28.1 15.9 28.8 14 28.8 11.7C28.8 9.4 28.1 7.50001 26.6 6.10001C25.2 4.70001 23.3 4 20.8 4ZM24.6 16.2C23.7 17.2 22.5 17.7 20.8 17.7C19.2 17.7 17.9 17.2 17 16.2C16.1 15.2 15.7 13.7 15.7 11.7C15.7 9.7 16.2 8.20001 17 7.10001C17.9 6.10001 19.1 5.5 20.8 5.5C22.4 5.5 23.7 6 24.6 7C25.5 8 25.9 9.50001 25.9 11.6C25.9 13.6 25.5 15.2 24.6 16.2Z" fill="#101010"/>
<path d="M66 4C63.6 4 61.7 4.70001 60.2 6.10001C58.7 7.50001 58 9.4 58 11.7C58 14 58.7 15.9 60.2 17.3C61.6 18.7 63.6 19.4 66 19.4C68.4 19.4 70.3 18.7 71.8 17.3C73.3 15.9 74 14 74 11.7C74 9.4 73.3 7.50001 71.8 6.10001C70.4 4.70001 68.5 4 66 4ZM69.8 16.2C68.9 17.2 67.7 17.7 66 17.7C64.4 17.7 63.1 17.2 62.2 16.2C61.3 15.2 60.9 13.7 60.9 11.7C60.9 9.7 61.4 8.20001 62.2 7.10001C63.1 6.10001 64.3 5.5 66 5.5C67.6 5.5 68.9 6 69.8 7C70.7 8 71.1 9.50001 71.1 11.6C71.1 13.6 70.7 15.2 69.8 16.2Z" fill="#101010"/>
<path d="M6.89999 9.5C8.49999 9.2 9.7 8.6 10.5 7.8C11.5 6.9 11.9 5.8 11.9 4.5C11.9 1.5 9.8 0 5.7 0H0V0.299995C0.1 2.5 0.199997 5.5 0.199997 9.3C0.199997 13.2 0.1 16.2 0 18.2V18.5H2.89999V9.6H3.09999C3.39999 9.6 3.69999 9.8 3.89999 10.1L10.1 18.4V18.5H13.8L13.5 18.1C10.5 14 8.19999 11.1 6.89999 9.5ZM3 1.4H4.89999C7.79999 1.4 9.09999 2.4 9.09999 4.7C9.09999 7.1 7.2 8.3 3.5 8.3H2.89999V1.4H3Z" fill="#101010"/>
<path d="M77.7 14.8V8.4C77.7 6.7 77.7 5.3 77.8 4.4V4H75V4.4C75.1 5.7 75.1 8 75.1 11.4V13.1C75.1 15.3 75 17.1 75 18.4V18.8H77.8V18.4C77.7 17.5 77.7 16.3 77.7 14.8Z" fill="#101010"/>
<rect x="15" y="1" width="27" height="2" fill="#002B7F"/>
<rect x="44" y="1" width="23" height="2" fill="#FCD116"/>
<rect x="69" y="1" width="23" height="2" fill="#CE1126"/>
</svg>
